<svg xmlns="http://www.w3.org/2000/svg" xmlns:xlink="http://www.w3.org/1999/xlink" width="256" zoomAndPan="magnify" viewBox="0 0 192 191.999996" height="256" preserveAspectRatio="xMidYMid meet" version="1.0"><defs><clipPath id="cabcb4bdd0"><path d="M 5 10 L 42 10 L 42 46 L 5 46 Z M 5 10 " clip-rule="nonzero"/></clipPath><clipPath id="94430ef7ef"><path d="M -2.523438 21.128906 L 27.585938 0.0546875 L 47.796875 28.9375 L 17.6875 50.007812 Z M -2.523438 21.128906 " clip-rule="nonzero"/></clipPath><clipPath id="dd32869559"><path d="M -2.539062 21.136719 L 27.570312 0.0664062 L 47.78125 28.945312 L 17.671875 50.019531 Z M -2.539062 21.136719 " clip-rule="nonzero"/></clipPath><clipPath id="0d59a51e72"><path d="M -2.539062 21.136719 L 27.570312 0.0664062 L 47.78125 28.945312 L 17.671875 50.019531 Z M -2.539062 21.136719 " clip-rule="nonzero"/></clipPath><clipPath id="e43bfedf6a"><path d="M 22 9 L 87 9 L 87 72 L 22 72 Z M 22 9 " clip-rule="nonzero"/></clipPath><clipPath id="b141cd157c"><path d="M 10.898438 26.128906 L 66.023438 -7.363281 L 97.566406 44.554688 L 42.445312 78.046875 Z M 10.898438 26.128906 " clip-rule="nonzero"/></clipPath><clipPath id="1b8d288f31"><path d="M 10.875 26.144531 L 65.996094 -7.347656 L 97.542969 44.570312 L 42.417969 78.0625 Z M 10.875 26.144531 " clip-rule="nonzero"/></clipPath><clipPath id="b871037c65"><path d="M 10.875 26.144531 L 65.996094 -7.347656 L 97.542969 44.570312 L 42.417969 78.0625 Z M 10.875 26.144531 " clip-rule="nonzero"/></clipPath><clipPath id="9368514c62"><path d="M 5 61 L 51 61 L 51 106 L 5 106 Z M 5 61 " clip-rule="nonzero"/></clipPath><clipPath id="f629d55019"><path d="M 44.304688 56.902344 L 57.242188 100.785156 L 15.519531 113.085938 L 2.582031 69.203125 Z M 44.304688 56.902344 " clip-rule="nonzero"/></clipPath><clipPath id="52c5e188ea"><path d="M 44.300781 56.878906 L 57.238281 100.761719 L 15.511719 113.0625 L 2.574219 69.179688 Z M 44.300781 56.878906 " clip-rule="nonzero"/></clipPath><clipPath id="4d01c79152"><path d="M 44.300781 56.878906 L 57.238281 100.761719 L 15.511719 113.0625 L 2.574219 69.179688 Z M 44.300781 56.878906 " clip-rule="nonzero"/></clipPath><clipPath id="8e47c88b29"><path d="M 76 88 L 113 88 L 113 126 L 76 126 Z M 76 88 " clip-rule="nonzero"/></clipPath><clipPath id="e11f03a596"><path d="M 73.496094 92.375 L 109.453125 84.789062 L 116.730469 119.28125 L 80.773438 126.867188 Z M 73.496094 92.375 " clip-rule="nonzero"/></clipPath><clipPath id="76217578b6"><path d="M 73.476562 92.378906 L 109.4375 84.792969 L 116.714844 119.28125 L 80.753906 126.871094 Z M 73.476562 92.378906 " clip-rule="nonzero"/></clipPath><clipPath id="e8f7ecb532"><path d="M 73.476562 92.378906 L 109.4375 84.792969 L 116.714844 119.28125 L 80.753906 126.871094 Z M 73.476562 92.378906 " clip-rule="nonzero"/></clipPath><clipPath id="6fcc3b2da9"><path d="M 8 120 L 72 120 L 72 183 L 8 183 Z M 8 120 " clip-rule="nonzero"/></clipPath><clipPath id="6fad89e66c"><path d="M 84.371094 133.027344 L 58.878906 192.273438 L 3.074219 168.265625 L 28.566406 109.015625 Z M 84.371094 133.027344 " clip-rule="nonzero"/></clipPath><clipPath id="66283edba4"><path d="M 84.382812 132.996094 L 58.890625 192.246094 L 3.085938 168.238281 L 28.578125 108.988281 Z M 84.382812 132.996094 " clip-rule="nonzero"/></clipPath><clipPath id="14abad7888"><path d="M 84.382812 132.996094 L 58.890625 192.246094 L 3.085938 168.238281 L 28.578125 108.988281 Z M 84.382812 132.996094 " clip-rule="nonzero"/></clipPath><clipPath id="67501845dd"><path d="M 103 99 L 186 99 L 186 181 L 103 181 Z M 103 99 " clip-rule="nonzero"/></clipPath><clipPath id="9f7edd5d94"><path d="M 128.332031 79.269531 L 200.058594 120.03125 L 161.148438 188.5 L 89.421875 147.738281 Z M 128.332031 79.269531 " clip-rule="nonzero"/></clipPath><clipPath id="6a983b5bda"><path d="M 128.296875 79.25 L 200.023438 120.011719 L 161.113281 188.480469 L 89.386719 147.71875 Z M 128.296875 79.25 " clip-rule="nonzero"/></clipPath><clipPath id="322ba9f0fd"><path d="M 128.296875 79.25 L 200.023438 120.011719 L 161.113281 188.480469 L 89.386719 147.71875 Z M 128.296875 79.25 " clip-rule="nonzero"/></clipPath><clipPath id="256aa1de24"><path d="M 120 41 L 173 41 L 173 95 L 120 95 Z M 120 41 " clip-rule="nonzero"/></clipPath><clipPath id="89799eacc8"><path d="M 116.789062 46.585938 L 168.890625 35.59375 L 179.421875 85.492188 L 127.316406 96.488281 Z M 116.789062 46.585938 " clip-rule="nonzero"/></clipPath><clipPath id="ab2ec1e4ce"><path d="M 116.765625 46.589844 L 168.867188 35.597656 L 179.394531 85.5 L 127.292969 96.492188 Z M 116.765625 46.589844 " clip-rule="nonzero"/></clipPath><clipPath id="3f8ba72907"><path d="M 116.765625 46.589844 L 168.867188 35.597656 L 179.394531 85.5 L 127.292969 96.492188 Z M 116.765625 46.589844 " clip-rule="nonzero"/></clipPath><clipPath id="814eb87497"><path d="M 145 6 L 186 6 L 186 49 L 145 49 Z M 145 6 " clip-rule="nonzero"/></clipPath><clipPath id="e735c268f1"><path d="M 197.003906 22.199219 L 173.742188 57.171875 L 140.644531 35.160156 L 163.902344 0.1875 Z M 197.003906 22.199219 " clip-rule="nonzero"/></clipPath><clipPath id="07dd1d0714"><path d="M 197.011719 22.183594 L 173.753906 57.15625 L 140.65625 35.144531 L 163.914062 0.171875 Z M 197.011719 22.183594 " clip-rule="nonzero"/></clipPath><clipPath id="4c89046d19"><path d="M 197.011719 22.183594 L 173.753906 57.15625 L 140.65625 35.144531 L 163.914062 0.171875 Z M 197.011719 22.183594 " clip-rule="nonzero"/></clipPath></defs><rect x="-19.2" width="230.4" fill="#ffffff" y="-19.2" height="230.399995" fill-opacity="1"/><rect x="-19.2" width="230.4" fill="#ffffff" y="-19.2" height="230.399995" fill-opacity="1"/><g clip-path="url(#cabcb4bdd0)"><g clip-path="url(#94430ef7ef)"><g clip-path="url(#dd32869559)"><g clip-path="url(#0d59a51e72)"><path stroke-linecap="round" transform="matrix(0.100271, -0.0701712, 0.0708413, 0.101228, -2.478141, 21.095841)" fill="none" stroke-linejoin="round" d="M 149.513825 5.375631 L 187.218317 105.023561 L 293.640915 110.107914 L 210.524944 176.747225 L 238.594323 279.556192 L 149.514277 221.086047 L 60.422501 279.531137 L 88.482214 176.733506 L 5.370727 110.091006 L 111.794688 105.02751 Z M 149.513825 5.375631 " stroke="#000000" stroke-width="10.742" stroke-opacity="1" stroke-miterlimit="10"/></g></g></g></g><g clip-path="url(#e43bfedf6a)"><g clip-path="url(#b141cd157c)"><g clip-path="url(#1b8d288f31)"><g clip-path="url(#b871037c65)"><path stroke-linecap="round" transform="matrix(0.183557, -0.111527, 0.110567, 0.181977, 10.984492, 26.076654)" fill="none" stroke-linejoin="round" d="M 149.51782 5.371385 L 187.215014 105.020753 L 293.629422 110.091317 L 210.531072 176.752131 L 238.594818 279.534555 L 149.508057 221.073043 L 60.428771 279.539143 L 88.490151 176.744231 L 5.362375 110.085741 L 111.798357 105.016306 Z M 149.51782 5.371385 " stroke="#000000" stroke-width="10.742" stroke-opacity="1" stroke-miterlimit="10"/></g></g></g></g><g clip-path="url(#9368514c62)"><g clip-path="url(#f629d55019)"><g clip-path="url(#52c5e188ea)"><g clip-path="url(#4d01c79152)"><path stroke-linecap="round" transform="matrix(0.0430752, 0.146114, -0.146248, 0.0431147, 44.326418, 56.970517)" fill="none" stroke-linejoin="round" d="M 149.504106 5.373516 L 187.228347 105.027336 L 293.635117 110.085463 L 210.526522 176.740657 L 238.583432 279.530089 L 149.507937 221.082338 L 60.423564 279.540415 L 88.483258 176.745957 L 5.359196 110.088385 L 111.815795 105.011496 Z M 149.504106 5.373516 " stroke="#000000" stroke-width="10.742" stroke-opacity="1" stroke-miterlimit="10"/></g></g></g></g><g clip-path="url(#8e47c88b29)"><g clip-path="url(#e11f03a596)"><g clip-path="url(#76217578b6)"><g clip-path="url(#e8f7ecb532)"><path stroke-linecap="round" transform="matrix(0.119749, -0.0252657, 0.0255069, 0.120893, 73.548446, 92.364244)" fill="none" stroke-linejoin="round" d="M 149.518523 5.358597 L 187.23137 105.037935 L 293.639777 110.086657 L 210.543513 176.762975 L 238.595782 279.528579 L 149.501124 221.068092 L 60.420013 279.546599 L 88.481864 176.746958 L 5.371148 110.102044 L 111.787371 105.006516 Z M 149.518523 5.358597 " stroke="#000000" stroke-width="10.742" stroke-opacity="1" stroke-miterlimit="10"/></g></g></g></g><g clip-path="url(#6fcc3b2da9)"><g clip-path="url(#6fad89e66c)"><g clip-path="url(#66283edba4)"><g clip-path="url(#14abad7888)"><path stroke-linecap="round" transform="matrix(-0.0848858, 0.197296, -0.195598, -0.0841552, 84.330789, 133.116143)" fill="none" stroke-linejoin="round" d="M 149.500922 5.370415 L 187.212147 105.014757 L 293.639118 110.092554 L 210.52716 176.756735 L 238.592578 279.548687 L 149.502257 221.074243 L 60.437274 279.537698 L 88.486896 176.757283 L 5.369627 110.098834 L 111.796684 105.011465 Z M 149.500922 5.370415 " stroke="#000000" stroke-width="10.742" stroke-opacity="1" stroke-miterlimit="10"/></g></g></g></g><g clip-path="url(#67501845dd)"><g clip-path="url(#9f7edd5d94)"><g clip-path="url(#6a983b5bda)"><g clip-path="url(#322ba9f0fd)"><path stroke-linecap="round" transform="matrix(0.238813, 0.135719, -0.136381, 0.239979, 128.445961, 79.335252)" fill="none" stroke-linejoin="round" d="M 149.505947 5.367313 L 187.211068 105.017411 L 293.642641 110.081981 L 210.527274 176.750524 L 238.592363 279.541085 L 149.508154 221.074814 L 60.432641 279.540814 L 88.489166 176.752044 L 5.373964 110.091912 L 111.804869 105.016009 Z M 149.505947 5.367313 " stroke="#000000" stroke-width="10.742" stroke-opacity="1" stroke-miterlimit="10"/></g></g></g></g><g clip-path="url(#256aa1de24)"><g clip-path="url(#89799eacc8)"><g clip-path="url(#ab2ec1e4ce)"><g clip-path="url(#3f8ba72907)"><path stroke-linecap="round" transform="matrix(0.173504, -0.0366072, 0.0369036, 0.174908, 116.868451, 46.568361)" fill="none" stroke-linejoin="round" d="M 149.512741 5.374494 L 187.21701 105.010174 L 293.641039 110.087561 L 210.523817 176.753472 L 238.598909 279.532773 L 149.514144 221.090291 L 60.422652 279.537895 L 88.500896 176.741585 L 5.370492 110.098408 L 111.794514 105.014228 Z M 149.512741 5.374494 " stroke="#000000" stroke-width="10.742" stroke-opacity="1" stroke-miterlimit="10"/></g></g></g></g><g clip-path="url(#814eb87497)"><g clip-path="url(#e735c268f1)"><g clip-path="url(#07dd1d0714)"><g clip-path="url(#4c89046d19)"><path stroke-linecap="round" transform="matrix(-0.0774489, 0.116452, -0.116012, -0.0771566, 196.966703, 22.254784)" fill="none" stroke-linejoin="round" d="M 149.497887 5.366998 L 187.22255 105.034272 L 293.647535 110.082283 L 210.522826 176.754345 L 238.576293 279.544596 L 149.523772 221.079553 L 60.427719 279.549143 L 88.482896 176.743376 L 5.381025 110.096863 L 111.801672 105.012812 Z M 149.497887 5.366998 " stroke="#000000" stroke-width="10.742" stroke-opacity="1" stroke-miterlimit="10"/></g></g></g></g></svg>